<?xml version="1.0" encoding="UTF-8"?>
<svg version="1.1" xmlns="http://www.w3.org/2000/svg" width="196" height="187">
<path d="M0 0 C64.68 0 129.36 0 196 0 C196 61.71 196 123.42 196 187 C131.32 187 66.64 187 0 187 C0 125.29 0 63.58 0 0 Z " fill="#F2D0CF" transform="translate(0,0)"/>
<path d="M0 0 C64.68 0 129.36 0 196 0 C196 61.71 196 123.42 196 187 C178.18 187 160.36 187 142 187 C142.66 186.67 143.32 186.34 144 186 C144.33 185.01 144.66 184.02 145 183 C145.86625 183.0825 146.7325 183.165 147.625 183.25 C151.77276338 182.94275827 153.65867314 181.37605465 157 179 C157.99 179 158.98 179 160 179 C160.06058594 177.87980469 160.12117187 176.75960937 160.18359375 175.60546875 C160.26801424 174.13280016 160.35266149 172.66014456 160.4375 171.1875 C160.47681641 170.44951172 160.51613281 169.71152344 160.55664062 168.95117188 C160.74381035 165.76928658 160.98720793 163.03837622 162 160 C162.10194687 158.60274878 162.15470166 157.20158808 162.17578125 155.80078125 C162.56276654 139.97869573 164.37405961 124.48134881 166.48583984 108.81982422 C167.10505964 104.21948573 167.70532748 99.61682183 168.30322266 95.01367188 C168.54944099 93.12276514 168.79763201 91.2321136 169.04833984 89.34179688 C172.84945503 63.46143733 172.84945503 63.46143733 163 40 C163 39.34 163 38.68 163 38 C162.40445313 37.72800781 161.80890625 37.45601562 161.1953125 37.17578125 C159.05332541 36.0285604 157.62459823 34.8535747 155.875 33.1875 C148.43937372 26.78940297 141.85417607 24.28520083 132 24.625 C127.49886648 24.97749841 123.0746271 25.75525216 118.625 26.5 C103.21020666 29.05398316 87.75865505 29.27451411 72.5234375 25.6796875 C62.23051797 23.6941354 51.02458718 23.69923234 41.89453125 29.2890625 C34.01287288 34.81953197 29.48149703 41.10284091 26 50 C25.608125 50.886875 25.21625 51.77375 24.8125 52.6875 C21.10918201 63.22771273 23.03506766 75.50760056 24.1875 86.375 C24.31697021 87.6230542 24.44644043 88.8711084 24.57983398 90.15698242 C25.71720362 100.54642907 27.41168476 110.79472779 29.22875977 121.0859375 C30.76510494 129.98984901 31.70814651 138.81482312 32.32788086 147.82446289 C32.84262457 155.01171871 33.91319685 161.90945847 35.4140625 168.953125 C36 172 36 172 36 176 C36.99 176.33 37.98 176.66 39 177 C41.1875 178.9375 41.1875 178.9375 43 181 C43 181.66 43 182.32 43 183 C43.66 183 44.32 183 45 183 C45 183.66 45 184.32 45 185 C45.66 185.33 46.32 185.66 47 186 C46.67 186.33 46.34 186.66 46 187 C30.82 187 15.64 187 0 187 C0 125.29 0 63.58 0 0 Z " fill="#F6E2E1" transform="translate(0,0)"/>
<path d="M0 0 C15.04391319 2.61447793 30.44232511 2.71161462 45.40454102 -0.42553711 C52.07915823 -1.79974728 58.45280321 -1.79084677 65.25 -1.5 C64.60799641 2.02695646 63.16711013 4.40783948 61.1875 7.375 C58.38700841 11.6702325 55.76145886 16.03117938 53.25 20.5 C50.36546435 25.62211811 47.33197601 30.60970628 44.0859375 35.51171875 C42.4576507 38.16201535 40.96333605 40.83514325 39.484375 43.5703125 C35.59855575 50.75430691 31.4380936 57.77095617 27.28515625 64.80273438 C24.0632557 70.28838858 21.05652848 75.79234096 18.25 81.5 C17.38151589 82.97478433 16.49215633 84.43799179 15.5625 85.875 C14.36519256 87.73583075 13.23987706 89.52024589 12.25 91.5 C11.59 91.5 10.93 91.5 10.25 91.5 C9.92 93.48 9.59 95.46 9.25 97.5 C8.59 97.5 7.93 97.5 7.25 97.5 C6.98372803 98.21067627 6.71745605 98.92135254 6.44311523 99.65356445 C5.20675504 102.60317024 3.75966929 105.27410137 2.16015625 108.04296875 C1.54551514 109.109104 0.93087402 110.17523926 0.29760742 111.27368164 C-0.35747803 112.4002417 -1.01256348 113.52680176 -1.6875 114.6875 C-2.02059174 115.26192841 -2.35368347 115.83635681 -2.6968689 116.42819214 C-7.09276559 124.00810237 -11.52660911 131.56534587 -16.0625 139.0625 C-16.51165771 139.81104248 -16.96081543 140.55958496 -17.42358398 141.33081055 C-20.51091832 146.38045916 -20.51091832 146.38045916 -22.75 147.5 C-26.77292199 148.04858027 -28.39559737 147.73000373 -31.84375 145.4921875 C-35.40943143 142.35035957 -35.99330534 138.81934279 -36.5 134.25 C-36.61303467 133.41484863 -36.72606934 132.57969727 -36.8425293 131.71923828 C-37.79390486 124.28665924 -38.26075275 116.8178077 -38.76831055 109.34472656 C-39.72953404 96.67897026 -41.72536125 84.15266478 -43.63012695 71.60107422 C-43.76110779 70.73735199 -43.89208862 69.87362976 -44.02703857 68.98373413 C-44.27344074 67.36622185 -44.52192735 65.74902498 -44.77301025 64.13223267 C-46.11290233 55.40417619 -46.94856263 46.83436775 -47 38 C-47.020625 37.11441406 -47.04125 36.22882813 -47.0625 35.31640625 C-47.10834312 27.5116147 -45.57832337 19.82676856 -40.75 13.5 C-34.01710098 6.92236699 -34.01710098 6.92236699 -29.75 5.5 C-29.5025 4.88125 -29.255 4.2625 -29 3.625 C-27.45830798 1.00412357 -25.78211965 0.08693016 -22.9609375 -0.9609375 C-15.28879269 -2.83153111 -7.62375167 -1.36246176 0 0 Z " fill="#F5DBDA" transform="translate(73.75,29.5)"/>
<path d="M0 0 C6.38314439 0.79932041 10.4610703 4.68304156 15 9 C17.09555609 11.75141716 19 14.42660122 19 18 C19.66 18 20.32 18 21 18 C25.26756576 29.83645597 25.58356279 40.35493813 23.75 52.6875 C23.47342113 54.6366426 23.19741093 56.58586595 22.921875 58.53515625 C22.77298828 59.57559082 22.62410156 60.61602539 22.47070312 61.68798828 C20.19194652 77.72201942 18.06727413 93.767865 16.375 109.875 C16.25253906 111.03676758 16.13007813 112.19853516 16.00390625 113.39550781 C15.57445403 117.4859222 15.1453873 121.5763509 14.72753906 125.66796875 C14.49608778 127.90503098 14.25058761 130.14001495 14 132.375 C13.87625 133.53773438 13.7525 134.70046875 13.625 135.8984375 C12.61969685 140.88725439 11.27610051 144.14926633 7 147 C2.78802137 147.36625901 -0.29142645 147.05008103 -4 145 C-5.7734375 142.09375 -5.7734375 142.09375 -7.375 138.5 C-9.37433662 134.04827512 -11.47069991 130.23325332 -14.3359375 126.27734375 C-18.2495848 120.82274326 -21.25123714 115.05616134 -24.25 109.0625 C-25.27076825 107.02989521 -26.29659687 104.9998217 -27.328125 102.97265625 C-27.7705957 102.08843994 -28.21306641 101.20422363 -28.66894531 100.29321289 C-29.9292964 98.12181197 -31.22083429 96.73576392 -33 95 C-33.66986491 93.39232421 -34.33500348 91.78240956 -34.96875 90.16015625 C-36.75520836 86.41806734 -39.26696497 83.1139454 -41.671875 79.74609375 C-43.36028857 76.25505041 -43.09032045 74.68403428 -42 71 C-40.66015625 68.2265625 -40.66015625 68.2265625 -39.0625 65.625 C-38.53785156 64.75101562 -38.01320313 63.87703125 -37.47265625 62.9765625 C-36.74369141 61.99816406 -36.74369141 61.99816406 -36 61 C-35.34 61 -34.68 61 -34 61 C-33.34 58.69 -32.68 56.38 -32 54 C-31.34 54 -30.68 54 -30 54 C-29.62875 52.948125 -29.62875 52.948125 -29.25 51.875 C-28 49 -28 49 -26.0625 46.125 C-24.47740954 43.72334779 -23.42834531 41.80214902 -22.375 39.1875 C-21 36 -21 36 -19 35 C-17.95191959 33.02477154 -16.9479589 31.02518491 -16 29 C-15.34 29 -14.68 29 -14 29 C-13.81824219 28.26394531 -13.63648438 27.52789062 -13.44921875 26.76953125 C-10.81728479 16.55222865 -10.81728479 16.55222865 -8 13 C-7.34 13 -6.68 13 -6 13 C-5.9071875 12.01 -5.9071875 12.01 -5.8125 11 C-4.67863503 6.81342164 -2.40368936 3.57449008 0 0 Z " fill="#F7E8E6" transform="translate(143,30)"/>
<path d="M0 0 C14.83851246 3.28354859 30.23598964 2.05894308 45.10620117 -0.41235352 C57.52679747 -2.46161933 67.20678687 -2.82396605 78 4.5 C80.57597208 6.65927071 82.7732379 8.99114135 85 11.5 C85.86625 12.221875 86.7325 12.94375 87.625 13.6875 C93.44524327 20.57989335 96.19796413 29.92845096 96.1875 38.8125 C96.18669434 39.52744629 96.18588867 40.24239258 96.18505859 40.97900391 C96.12059192 46.68620063 95.47789819 52.18305489 94.5703125 57.8203125 C93.92947766 61.95501398 93.44883537 66.09091117 93 70.25 C92.91766113 71.00490723 92.83532227 71.75981445 92.75048828 72.53759766 C92.49843064 74.8581985 92.24881216 77.17904908 92 79.5 C91.66942558 82.58363947 91.3356112 85.66690506 91 88.75 C90.89365234 89.75691895 90.89365234 89.75691895 90.78515625 90.78417969 C90.16729376 96.45604893 89.34901797 102.09370227 88.53076172 107.73974609 C87.99944054 111.50396355 87.5103261 115.27127766 87.03515625 119.04296875 C86.79442383 120.93112305 86.79442383 120.93112305 86.54882812 122.85742188 C86.22320627 125.42185746 85.902938 127.98697822 85.58789062 130.55273438 C82.97018857 150.85817619 82.97018857 150.85817619 78.375 154.6875 C73.30037029 155.90917012 68.64073127 157.01952693 63.90234375 154.29296875 C59.23535938 150.50763235 59.23535938 150.50763235 58.5 147.359375 C58.335 146.74578125 58.17 146.1321875 58 145.5 C57.01 145.17 56.02 144.84 55 144.5 C54.24324661 142.78907928 53.49427004 141.0733203 52.8203125 139.328125 C51.99138587 137.26478293 51.99138587 137.26478293 49.9375 135 C47.50847168 131.86576991 46.90248475 129.3355602 46 125.5 C45.34 125.5 44.68 125.5 44 125.5 C43.566875 124.448125 43.13375 123.39625 42.6875 122.3125 C41.68434768 119.95270359 40.64056505 117.90094175 39.3125 115.6875 C38 113.5 38 113.5 38 111.5 C36.515 111.005 36.515 111.005 35 110.5 C33.58546665 108.37228143 32.33990916 106.29972496 31.125 104.0625 C30.77566406 103.43520996 30.42632812 102.80791992 30.06640625 102.16162109 C27.22406915 97.01840686 24.53978476 91.79935858 22 86.5 C21.34 86.5 20.68 86.5 20 86.5 C18.21530927 88.95881948 18.21530927 88.95881948 16.375 92.125 C15.84495361 93.0063562 15.84495361 93.0063562 15.30419922 93.90551758 C10.56131831 101.83380564 5.98476772 109.8580394 1.5546875 117.96484375 C-2.76919532 125.86138766 -7.13902347 133.53985815 -12.30859375 140.921875 C-14.09117296 143.52355776 -14.09117296 143.52355776 -15.53515625 146.62109375 C-16.84101245 149.18753647 -17.95474048 150.83648104 -20 152.8125 C-20.495 153.30363281 -20.99 153.79476562 -21.5 154.30078125 C-23.91271251 156.22969464 -26.23000661 156.53096243 -29.25 156.9375 C-34.29930918 156.34841393 -36.81117262 154.38205073 -40 150.5 C-41.3125 147.4375 -41.3125 147.4375 -42 143.5 C-42.15855469 142.67757812 -42.31710938 141.85515625 -42.48046875 141.0078125 C-43.56463412 134.86149152 -44.15203014 128.76126095 -44.59741211 122.54199219 C-45.34589233 112.17371451 -46.63244026 102.05156863 -48.4375 91.8125 C-50.24413703 81.51666154 -51.7339162 71.27222564 -52.8125 60.875 C-52.93616943 59.70880127 -53.05983887 58.54260254 -53.18725586 57.34106445 C-54.84140304 40.5139758 -54.63316392 25.47501544 -44 11.5 C-32.35758239 -2.12345725 -16.84815578 -4.03138716 0 0 Z M-30 5.5 C-31.1500831 7.46672915 -31.1500831 7.46672915 -32 9.5 C-33.64556566 10.53435556 -35.3170608 11.52763513 -37 12.5 C-43.03340804 16.78831917 -46.69390728 21.49625287 -48.578125 28.71484375 C-51.40406475 47.37127935 -47.31579498 66.67813167 -44.62841797 85.13183594 C-43.76943459 91.05861125 -42.99327271 96.995177 -42.25 102.9375 C-42.12906982 103.89914063 -42.00813965 104.86078125 -41.88354492 105.8515625 C-41.27330347 110.83615985 -40.79837255 115.79754597 -40.5 120.8125 C-40.13362423 126.42565337 -39.55541258 131.98801747 -38.8125 137.5625 C-38.67908203 138.77836792 -38.67908203 138.77836792 -38.54296875 140.01879883 C-37.94669384 144.15242264 -37.29385509 146.72005656 -34.08203125 149.5234375 C-30.59693217 151.75849471 -29.04941762 152.29227736 -25 151.5 C-21.94888556 148.85310582 -19.96147348 146.05436064 -17.96875 142.5625 C-17.41074707 141.59393066 -16.85274414 140.62536133 -16.27783203 139.62744141 C-15.69114746 138.59538574 -15.10446289 137.56333008 -14.5 136.5 C-13.25905967 134.3404287 -12.01684896 132.18158695 -10.7734375 130.0234375 C-9.83516113 128.39293457 -9.83516113 128.39293457 -8.87792969 126.72949219 C-5.52241353 120.95898156 -2.04894523 115.25889833 1.44335938 109.5703125 C1.91322266 108.796875 2.38308594 108.0234375 2.8671875 107.2265625 C3.28081543 106.55189941 3.69444336 105.87723633 4.12060547 105.18212891 C5.15443184 103.5209535 5.15443184 103.5209535 5 101.5 C5.66 101.5 6.32 101.5 7 101.5 C7.33 99.52 7.66 97.54 8 95.5 C8.66 95.5 9.32 95.5 10 95.5 C10.33773437 94.87351562 10.67546875 94.24703125 11.0234375 93.6015625 C11.46945313 92.78429687 11.91546875 91.96703125 12.375 91.125 C12.81585938 90.31289062 13.25671875 89.50078125 13.7109375 88.6640625 C15 86.5 15 86.5 17 84.5 C17.68597904 82.87956034 18.36956524 81.25806269 19.04052734 79.63134766 C20.98188118 75.31887463 23.44406051 71.27577287 25.8125 67.1875 C26.32103516 66.30126953 26.82957031 65.41503906 27.35351562 64.50195312 C30.37546935 59.25087764 33.46032575 54.04081512 36.58666992 48.85131836 C38.66484174 45.39392108 40.70832834 41.91653227 42.75 38.4375 C43.17047607 37.72287598 43.59095215 37.00825195 44.02416992 36.27197266 C46.25620941 32.47721559 48.47975455 28.67777162 50.69140625 24.87109375 C51.1306543 24.11771729 51.56990234 23.36434082 52.02246094 22.58813477 C52.85534928 21.15926784 53.68562023 19.72887053 54.51269531 18.29663086 C56.46071325 14.96038436 58.48346365 11.79467646 60.79296875 8.6953125 C63.28416023 5.73583426 63.28416023 5.73583426 63 2.5 C55.41922598 2.17562457 48.54568662 2.44409277 41.125 4 C26.01098938 7.01228803 10.50428455 6.2793535 -4.59423828 3.58105469 C-13.33230063 2.02197345 -22.10464455 0.69413146 -30 5.5 Z M67 4.5 C65.29815055 6.35090155 65.29815055 6.35090155 63.8125 8.75 C63.28269531 9.53890625 62.75289062 10.3278125 62.20703125 11.140625 C60.69636757 13.65180758 60.69636757 13.65180758 61 17.5 C60.34 17.5 59.68 17.5 59 17.5 C55.65217026 22.74493326 54.05486051 27.37903309 53 33.5 C52.34 33.5 51.68 33.5 51 33.5 C50.5875 34.4075 50.175 35.315 49.75 36.25 C48.08624928 39.33982277 46.44359168 41.05640832 44 43.5 C43.30959426 45.15697379 42.6469365 46.8255761 42 48.5 C40.71979536 50.60928956 39.38477639 52.67272239 38.0234375 54.73046875 C36.83311347 56.44785169 36.83311347 56.44785169 37 58.5 C36.34 58.5 35.68 58.5 35 58.5 C34.34 60.81 33.68 63.12 33 65.5 C32.34 65.5 31.68 65.5 31 65.5 C29.12862622 68.02679739 29.12862622 68.02679739 27.3125 71.1875 C26.34763672 72.77111328 26.34763672 72.77111328 25.36328125 74.38671875 C23.82177944 77.90699653 23.65683666 78.96043432 25 82.5 C26.24296708 84.70729099 27.5628824 86.87220133 28.9375 89 C31.37445864 92.78591034 33.36707317 96.31606301 35 100.5 C35.8385325 101.79518555 36.71598135 103.0657733 37.625 104.3125 C40.50928816 108.50910418 42.7303476 112.86535165 44.9375 117.4375 C47.63260479 123.00251681 50.5601858 127.95220701 54.27734375 132.9140625 C57.13351726 137.20156105 59.13306288 141.89614109 61.2265625 146.59375 C63.24048783 149.8941034 64.30987563 150.58763854 68 151.5 C71.32861818 151.83965492 73.2762941 151.88195589 76.25 150.3125 C79.94999177 146.48036567 80.37759132 141.75812216 80.96484375 136.63671875 C81.04259537 135.97699066 81.12034698 135.31726257 81.20045471 134.63754272 C81.4524482 132.48820957 81.69492179 130.33791421 81.9375 128.1875 C82.11252257 126.68212188 82.28831136 125.17683267 82.46484375 123.67163086 C82.81737861 120.66319995 83.16716811 117.65447003 83.51513672 114.64550781 C84.13885446 109.27967159 84.81658834 103.92101496 85.5 98.5625 C86.38274893 91.59265351 87.22582126 84.61887585 88.0390625 77.640625 C88.12891418 76.87064682 88.21876587 76.10066864 88.31134033 75.30735779 C88.75817635 71.47421601 89.2022975 67.64078498 89.64257812 63.80688477 C89.80593414 62.39859383 89.96934314 60.99030904 90.1328125 59.58203125 C90.27605957 58.33655518 90.41930664 57.0910791 90.56689453 55.80786133 C90.93466066 52.99903194 91.44416133 50.27478195 92 47.5 C92.51678042 39.36070838 91.69097026 29.88194052 88 22.5 C87.34 22.5 86.68 22.5 86 22.5 C85.731875 21.778125 85.46375 21.05625 85.1875 20.3125 C82.8668203 14.81615334 80.38701309 11.67540853 75.5 8.1875 C74.5409375 7.49011719 73.581875 6.79273438 72.59375 6.07421875 C70.07824716 4.24057813 70.07824716 4.24057813 67 4.5 Z " fill="#473D3C" transform="translate(76,25.5)"/>
<path d="M0 0 C2.57597208 2.15927071 4.7732379 4.49114135 7 7 C7.86625 7.721875 8.7325 8.44375 9.625 9.1875 C15.44524327 16.07989335 18.19796413 25.42845096 18.1875 34.3125 C18.18669434 35.02744629 18.18588867 35.74239258 18.18505859 36.47900391 C18.12059192 42.18620063 17.47789819 47.68305489 16.5703125 53.3203125 C15.92947766 57.45501398 15.44883537 61.59091117 15 65.75 C14.91766113 66.50490723 14.83532227 67.25981445 14.75048828 68.03759766 C14.49843064 70.3581985 14.24881216 72.67904908 14 75 C13.66942558 78.08363947 13.3356112 81.16690506 13 84.25 C12.92910156 84.9212793 12.85820312 85.59255859 12.78515625 86.28417969 C12.16729376 91.95604893 11.34901797 97.59370227 10.53076172 103.23974609 C9.99944054 107.00396355 9.5103261 110.77127766 9.03515625 114.54296875 C8.79442383 116.43112305 8.79442383 116.43112305 8.54882812 118.35742188 C8.22320627 120.92185746 7.902938 123.48697822 7.58789062 126.05273438 C4.97018857 146.35817619 4.97018857 146.35817619 0.375 150.1875 C-5.1896885 151.52714723 -9.83817668 152.2418985 -14.9375 149.3125 C-17.90176828 145.98892647 -19 143.44793499 -19 139 C-18.34 139 -17.68 139 -17 139 C-16.34 140.98 -15.68 142.96 -15 145 C-13.23086176 145.22226864 -11.45955629 145.42733873 -9.6875 145.625 C-8.70136719 145.74101562 -7.71523437 145.85703125 -6.69921875 145.9765625 C-3.77342584 146.25476995 -3.77342584 146.25476995 -1 144 C0.97505255 140.15213392 1.475484 136.40440427 1.96484375 132.13671875 C2.04259537 131.47699066 2.12034698 130.81726257 2.20045471 130.13754272 C2.4524482 127.98820957 2.69492179 125.83791421 2.9375 123.6875 C3.11252257 122.18212188 3.28831136 120.67683267 3.46484375 119.17163086 C3.81737861 116.16319995 4.16716811 113.15447003 4.51513672 110.14550781 C5.13885446 104.77967159 5.81658834 99.42101496 6.5 94.0625 C7.38274893 87.09265351 8.22582126 80.11887585 9.0390625 73.140625 C9.12891418 72.37064682 9.21876587 71.60066864 9.31134033 70.80735779 C9.75817635 66.97421601 10.2022975 63.14078498 10.64257812 59.30688477 C10.80593414 57.89859383 10.96934314 56.49030904 11.1328125 55.08203125 C11.27605957 53.83655518 11.41930664 52.5910791 11.56689453 51.30786133 C11.93465629 48.49906532 12.44234078 45.7744284 13 43 C13.56242409 34.42303268 11.72282095 26.35773259 10 18 C9.34 18 8.68 18 8 18 C7.76667969 17.443125 7.53335938 16.88625 7.29296875 16.3125 C3.94604619 9.31116376 -0.99352197 4.44283834 -8 1 C-10.76777221 1.1781546 -10.76777221 1.1781546 -13 2 C-13.495 0.02 -13.495 0.02 -14 -2 C-16.27128649 -1.88352377 -18.54202187 -1.75629385 -20.8125 -1.625 C-22.70935547 -1.52058594 -22.70935547 -1.52058594 -24.64453125 -1.4140625 C-27.88734157 -1.17214636 -30.97929818 -0.62776032 -34.1640625 0.0234375 C-40.64054516 1.25081963 -46.98765597 1.29420063 -53.5625 1.25 C-55.2940332 1.26160156 -55.2940332 1.26160156 -57.06054688 1.2734375 C-63.94433161 1.25781916 -70.31633343 0.67067879 -77 -1 C-77 -1.33 -77 -1.66 -77 -2 C-75.74848145 -2.02187378 -75.74848145 -2.02187378 -74.47167969 -2.04418945 C-54.62649017 -2.31452852 -54.62649017 -2.31452852 -34.9375 -4.5625 C-21.90222126 -6.74656016 -11.45822126 -7.77522157 0 0 Z " fill="#453D3C" transform="translate(154,30)"/>
<path d="M0 0 C0.99 1.32 1.98 2.64 3 4 C2.0409375 5.60875 2.0409375 5.60875 1.0625 7.25 C-0.40601273 9.80822182 -1.52854542 12.05340886 -2 15 C-2.66 15 -3.32 15 -4 15 C-5.45232253 18.57847037 -6.81226545 22.18060107 -8.125 25.8125 C-8.47820312 26.78832031 -8.83140625 27.76414062 -9.1953125 28.76953125 C-9.46085937 29.50558594 -9.72640625 30.24164063 -10 31 C-10.66 31 -11.32 31 -12 31 C-12.2475 31.9075 -12.495 32.815 -12.75 33.75 C-14.0678305 37.1763593 -15.41433859 38.49514051 -18 41 C-18.68032897 42.66113657 -19.34497525 44.3287236 -20 46 C-20.96245088 47.79151863 -21.96322553 49.56294309 -23 51.3125 C-23.515625 52.19550781 -24.03125 53.07851562 -24.5625 53.98828125 C-25.036875 54.65214844 -25.51125 55.31601563 -26 56 C-26.66 56 -27.32 56 -28 56 C-28.144375 56.78375 -28.28875 57.5675 -28.4375 58.375 C-29 61 -29 61 -30 63 C-30.66 63 -31.32 63 -32 63 C-32.495 63.99 -32.495 63.99 -33 65 C-33.33 64.34 -33.66 63.68 -34 63 C-34.66 64.32 -35.32 65.64 -36 67 C-36.66 67 -37.32 67 -38 67 C-36.53168523 61.86887828 -34.24316198 57.70910339 -31.5 53.1875 C-30.59359788 51.67066381 -29.68735223 50.1537341 -28.78125 48.63671875 C-28.31847656 47.86634277 -27.85570313 47.0959668 -27.37890625 46.30224609 C-25.23015801 42.7146583 -23.11625033 39.10681571 -21 35.5 C-20.17325338 34.09630923 -19.34643009 32.69266361 -18.51953125 31.2890625 C-16.778724 28.33071218 -15.04855179 25.36641836 -13.32421875 22.3984375 C-12.88271484 21.64111328 -12.44121094 20.88378906 -11.98632812 20.10351562 C-11.15022053 18.66893102 -10.31667884 17.23284628 -9.48632812 15.79492188 C-7.54893482 12.47693234 -5.53685644 9.29916606 -3.26953125 6.1953125 C-0.90136898 3.19000335 -0.90136898 3.19000335 0 0 Z " fill="#474041" transform="translate(139,28)"/>
<path d="M0 0 C4.24885341 2.83256894 6.16379599 6.8224565 7.95703125 11.4921875 C8.96257147 13.91000331 10.08862394 15.70534735 11.625 17.8125 C14.50928263 22.00909613 16.73040583 26.3653201 18.9375 30.9375 C21.71003833 36.66395768 24.76483903 41.82171015 28.52734375 46.97265625 C32.55474293 52.51700685 33.56919865 57.31515141 34 64 C32.5 62.625 32.5 62.625 31 61 C31 60.34 31 59.68 31 59 C30.01 58.67 29.02 58.34 28 58 C27.24324661 56.28907928 26.49427004 54.5733203 25.8203125 52.828125 C24.99138587 50.76478293 24.99138587 50.76478293 22.9375 48.5 C20.50847168 45.36576991 19.90248475 42.8355602 19 39 C18.34 39 17.68 39 17 39 C16.3503125 37.4221875 16.3503125 37.4221875 15.6875 35.8125 C14.68434768 33.45270359 13.64056505 31.40094175 12.3125 29.1875 C11 27 11 27 11 25 C10.01 24.67 9.02 24.34 8 24 C6.52155321 21.78964886 5.21331864 19.63453726 3.9375 17.3125 C3.58623047 16.69955078 3.23496094 16.08660156 2.87304688 15.45507812 C0.78543709 11.73368677 -0.78098288 8.11181423 -2 4 C-1.34 4 -0.68 4 0 4 C0 2.68 0 1.36 0 0 Z " fill="#443837" transform="translate(103,112)"/>
<path d="M0 0 C2.3359375 2.70703125 2.3359375 2.70703125 4 5 C-1.74338681 5.45046171 -3.6418553 4.55532857 -8 1 C-10.75124253 1.13149826 -10.75124253 1.13149826 -13 2 C-13.495 0.02 -13.495 0.02 -14 -2 C-16.27128649 -1.88352377 -18.54202187 -1.75629385 -20.8125 -1.625 C-22.70935547 -1.52058594 -22.70935547 -1.52058594 -24.64453125 -1.4140625 C-27.88734157 -1.17214636 -30.97929818 -0.62776032 -34.1640625 0.0234375 C-40.64054516 1.25081963 -46.98765597 1.29420063 -53.5625 1.25 C-55.2940332 1.26160156 -55.2940332 1.26160156 -57.06054688 1.2734375 C-63.94433161 1.25781916 -70.31633343 0.67067879 -77 -1 C-77 -1.33 -77 -1.66 -77 -2 C-75.74848145 -2.02187378 -75.74848145 -2.02187378 -74.47167969 -2.04418945 C-54.62649017 -2.31452852 -54.62649017 -2.31452852 -34.9375 -4.5625 C-22.10836048 -6.71202154 -11.19403654 -7.988314 0 0 Z " fill="#474242" transform="translate(154,30)"/>
<path d="M0 0 C1.32 0 2.64 0 4 0 C4 4.29 4 8.58 4 13 C7.96 13 11.92 13 16 13 C15.67 14.32 15.34 15.64 15 17 C11.37 17 7.74 17 4 17 C4 20.96 4 24.92 4 29 C2.35 29 0.7 29 -1 29 C-1 25.04 -1 21.08 -1 17 C-4.96 17 -8.92 17 -13 17 C-13 15.35 -13 13.7 -13 12 C-9.04 12 -5.08 12 -1 12 C-1.020625 10.205625 -1.04125 8.41125 -1.0625 6.5625 C-1.0838122 4.70833878 -1.07226502 2.85287502 -1 1 C-0.67 0.67 -0.34 0.34 0 0 Z " fill="#3D3A3A" transform="translate(175,4)"/>
<path d="M0 0 C0.33 0 0.66 0 1 0 C2.87387185 10.48118987 4.24278925 20.87622718 5 31.5 C5.57840683 39.29924009 6.22742488 47.06542739 7.3125 54.8125 C7.40595703 55.58851563 7.49941406 56.36453125 7.59570312 57.1640625 C8.15176749 60.81631957 8.78758537 62.77302182 11.3359375 65.49609375 C14.02477309 67.01398481 15.28656203 67.45514834 18.3125 67.25 C19.529375 67.1675 20.74625 67.085 22 67 C21.67 67.66 21.34 68.32 21 69 C19.741875 69.020625 18.48375 69.04125 17.1875 69.0625 C16.47980469 69.07410156 15.77210937 69.08570313 15.04296875 69.09765625 C13 69 13 69 10 68 C10.66 69.32 11.32 70.64 12 72 C9.10371669 70.7016661 6.9320396 69.54677947 5 67 C1.89013957 58.58508353 0.58390086 48.94613158 1 40 C1.66 40 2.32 40 3 40 C2.60445034 30.14248621 2.09124519 20.49567586 0.41015625 10.7578125 C-0.13137265 7.11667534 -0.14403233 3.67282431 0 0 Z " fill="#5B4B4D" transform="translate(31,109)"/>
<path d="M0 0 C0.33 0 0.66 0 1 0 C1.18175781 1.29550781 1.36351562 2.59101562 1.55078125 3.92578125 C1.80442542 5.72139121 2.05835402 7.516961 2.3125 9.3125 C2.44712646 10.26729248 2.58175293 11.22208496 2.72045898 12.20581055 C3.36611023 16.73962535 4.02911416 21.26635788 4.796875 25.78125 C6.4618851 35.59837729 7.50052541 45.33142227 8.22412109 55.26391602 C8.79479251 62.64735128 9.90381743 69.72899963 11.51171875 76.953125 C11.96576405 79.78636769 11.97865785 81.34645792 11 84 C10 83 10 83 9.9375 80.4375 C9.958125 79.633125 9.97875 78.82875 10 78 C9.34 78 8.68 78 8 78 C6.02199721 63.42423184 6.02199721 63.42423184 5.4375 57.9375 C5.19660943 55.7694849 4.92596093 53.60165758 4.52734375 51.45703125 C3.78250642 46.57420873 3.48668169 41.67398802 3.125 36.75 C2.4785885 28.30226999 1.54728289 20.01981181 -0.12255859 11.70996094 C-0.927527 7.51038925 -0.96792766 4.17053395 0 0 Z " fill="#C6A6A6" transform="translate(24,92)"/>
<path d="M0 0 C0.66 0 1.32 0 2 0 C-0.1883256 9.35011847 -4.95446776 17.42732228 -12 24 C-15.70175045 26.27069899 -18.68834732 26.1658328 -23 26 C-23.66 24.35 -24.32 22.7 -25 21 C-21.37 21 -17.74 21 -14 21 C-13.62488281 20.29875 -13.24976563 19.5975 -12.86328125 18.875 C-10.40686542 14.32104018 -7.93824477 9.77146292 -5.3125 5.3125 C-4.93738281 4.66925781 -4.56226562 4.02601563 -4.17578125 3.36328125 C-3.59376953 2.68845703 -3.59376953 2.68845703 -3 2 C-2.01 2 -1.02 2 0 2 C0 1.34 0 0.68 0 0 Z " fill="#483B3B" transform="translate(66,156)"/>
<path d="M0 0 C3.83590422 -0.44603537 5.46515916 -0.41743676 8.5625 2 C17.97292975 13.58206738 19.48127121 23.47273934 19 38 C18.67 38 18.34 38 18 38 C17.95101562 36.92878906 17.90203125 35.85757813 17.8515625 34.75390625 C17.77654706 33.35674361 17.7009987 31.9596095 17.625 30.5625 C17.5940625 29.85544922 17.563125 29.14839844 17.53125 28.41992188 C17.42719371 26.60760812 17.22080108 24.80182012 17 23 C16.34 22.67 15.68 22.34 15 22 C15 24.31 15 26.62 15 29 C14.67 29 14.34 29 14 29 C13.01 23.72 12.02 18.44 11 13 C10.34 13 9.68 13 9 13 C8.52820313 12.09507813 8.52820313 12.09507813 8.046875 11.171875 C5.76281063 6.90645359 3.73888023 3.18497204 0 0 Z " fill="#565251" transform="translate(153,35)"/>
<path d="M0 0 C2.14401446 3.62264512 2.80733993 7.40675151 3.5 11.5 C3.62673096 12.23613525 3.75346191 12.97227051 3.8840332 13.73071289 C4.85473463 19.61209384 5.57847807 25.50849236 6.1875 31.4375 C6.27128906 32.24058594 6.35507812 33.04367188 6.44140625 33.87109375 C6.98717511 39.59225696 7.08863893 45.25513691 7 51 C6.67 49.68 6.34 48.36 6 47 C5.34 47 4.68 47 4 47 C-0.77553612 14.69210102 -0.77553612 14.69210102 0 0 Z " fill="#342A2A" transform="translate(28,102)"/>
<path d="M0 0 C1.05948919 3.43801906 1.08687298 6.54353841 1.02734375 10.12890625 C1.01509766 11.32966797 1.00285156 12.53042969 0.99023438 13.76757812 C0.95545722 16.27024551 0.91648904 18.77285865 0.87304688 21.27539062 C0.80524105 28.76195114 1.32529859 35.69537135 3 43 C3.33 40.36 3.66 37.72 4 35 C4.33 35 4.66 35 5 35 C7.29612756 49.59681093 7.29612756 49.59681093 7 57 C6.34 56.01 5.68 55.02 5 54 C4.67 56.31 4.34 58.62 4 61 C2.31142542 57.9934076 1.61555694 55.44769745 1.18359375 52.03515625 C0.9976062 50.59716675 0.9976062 50.59716675 0.80786133 49.13012695 C0.68564209 48.11781006 0.56342285 47.10549316 0.4375 46.0625 C0.30819092 45.02504639 0.17888184 43.98759277 0.0456543 42.91870117 C-3.56591897 13.37219614 -3.56591897 13.37219614 0 0 Z " fill="#7B6A6A" transform="translate(24,52)"/>
<path d="M0 0 C0.33 0 0.66 0 1 0 C0.1110328 11.34692483 -1.14582483 22.63530616 -2.47412109 33.93798828 C-2.74256232 36.23952034 -3.00619325 38.54161829 -3.26513672 40.84423828 C-3.64242352 44.19700001 -4.03442185 47.54775359 -4.4296875 50.8984375 C-4.59862015 52.4360524 -4.59862015 52.4360524 -4.77096558 54.00473022 C-5.40175868 59.20511166 -6.07081861 63.51938736 -9 68 C-12 70 -12 70 -14.1875 69.625 C-14.785625 69.41875 -15.38375 69.2125 -16 69 C-15.505 68.01 -15.505 68.01 -15 67 C-12.4375 66.375 -12.4375 66.375 -10 66 C-8.60766533 61.82299599 -8.61795155 57.70332513 -8.37890625 53.32421875 C-8 50 -8 50 -7.03881836 47.3034668 C-5.84136666 43.49554224 -5.38307626 39.77214679 -5 35.8203125 C-4.91878906 35.04871796 -4.83757812 34.27712341 -4.75390625 33.48214722 C-4.49621316 31.03037708 -4.24716792 28.577852 -4 26.125 C-3.75248454 23.67933458 -3.50283131 21.23399166 -3.24609375 18.78927612 C-3.0869862 17.27382805 -2.93298715 15.75783108 -2.78515625 14.24124146 C-2.27169752 9.34417103 -1.28389898 4.75510709 0 0 Z " fill="#BEB1AE" transform="translate(162,107)"/>
<path d="M0 0 C0.33 0 0.66 0 1 0 C1.20235275 7.70064622 1.13134245 14.97854608 -0.515625 22.5234375 C-0.97861465 24.89065876 -1.10006782 27.09561514 -1.1875 29.5 C-2 33 -2 33 -4.8125 35 C-10.95078286 36.95309 -18.88715838 37.42445781 -24.75 34.5 C-25.4925 34.005 -26.235 33.51 -27 33 C-26.67 31.68 -26.34 30.36 -26 29 C-25.195625 29.825 -24.39125 30.65 -23.5625 31.5 C-20.18606785 34.32436149 -17.5448312 34.50135852 -13.24609375 34.37109375 C-10.53451584 33.92309392 -8.43094038 33.29922528 -6 32 C-1.11661004 23.24294358 -1.27998802 9.85165481 0 0 Z " fill="#B7A8A7" transform="translate(162,146)"/>
<path d="M0 0 C0.66 0 1.32 0 2 0 C0.24161205 5.01241623 -2.4507485 9.4368972 -5.125 14 C-5.61347412 14.83708496 -6.10194824 15.67416992 -6.60522461 16.53662109 C-9.56025161 21.58428868 -12.53100736 26.62282154 -15.5625 31.625 C-16.18253906 32.64851563 -16.80257812 33.67203125 -17.44140625 34.7265625 C-19 37 -19 37 -21 38 C-26.42307692 38.46153846 -26.42307692 38.46153846 -28.875 36.5 C-29.24625 36.005 -29.6175 35.51 -30 35 C-28.1128125 35.0928125 -28.1128125 35.0928125 -26.1875 35.1875 C-22.90700824 35.21502699 -22.90700824 35.21502699 -20.0625 33.6875 C-18.82428274 31.86929609 -18.82428274 31.86929609 -18 29 C-17.34 29 -16.68 29 -16 29 C-15.71125 28.278125 -15.4225 27.55625 -15.125 26.8125 C-14.75375 25.884375 -14.3825 24.95625 -14 24 C-13.67 23.0925 -13.34 22.185 -13 21.25 C-12 19 -12 19 -10 18 C-9.0123746 16.39141995 -9.0123746 16.39141995 -8.125 14.4375 C-7.78210938 13.72464844 -7.43921875 13.01179687 -7.0859375 12.27734375 C-6.54839844 11.15005859 -6.54839844 11.15005859 -6 10 C-5.25305032 8.49847871 -4.50320341 6.99839402 -3.75 5.5 C-3.1725 4.345 -2.595 3.19 -2 2 C-1.34 2 -0.68 2 0 2 C0 1.34 0 0.68 0 0 Z " fill="#D8B8B6" transform="translate(72,139)"/>
<path d="M0 0 C5.64637906 3.76425271 7.43798788 9.63179676 9 16 C9.20625 16.70125 9.4125 17.4025 9.625 18.125 C10.08866832 20.44334158 10.06548873 22.64240561 10 25 C7.11954688 22.43666098 5.36992274 19.50559088 3.4375 16.1875 C2.83808594 15.17042969 2.23867187 14.15335938 1.62109375 13.10546875 C0.05976602 10.11449153 -1.03085801 7.22565168 -2 4 C-1.34 4 -0.68 4 0 4 C0 2.68 0 1.36 0 0 Z " fill="#625454" transform="translate(103,112)"/>
<path d="M0 0 C1.32 0 2.64 0 4 0 C4 4.29 4 8.58 4 13 C-1.28 13 -6.56 13 -12 13 C-12 13.99 -12 14.98 -12 16 C-8.37 16 -4.74 16 -1 16 C-1 16.33 -1 16.66 -1 17 C-4.96 17 -8.92 17 -13 17 C-13 15.35 -13 13.7 -13 12 C-9.04 12 -5.08 12 -1 12 C-1.020625 10.205625 -1.04125 8.41125 -1.0625 6.5625 C-1.0838122 4.70833878 -1.07226502 2.85287502 -1 1 C-0.67 0.67 -0.34 0.34 0 0 Z " fill="#626060" transform="translate(175,4)"/>
<path d="M0 0 C0.66 0 1.32 0 2 0 C2.08564209 0.61520508 2.17128418 1.23041016 2.25952148 1.86425781 C2.64996171 4.65982037 3.04369627 7.45490936 3.4375 10.25 C3.57220703 11.21808594 3.70691406 12.18617187 3.84570312 13.18359375 C3.97783203 14.11816406 4.10996094 15.05273438 4.24609375 16.015625 C4.36654053 16.87446289 4.4869873 17.73330078 4.61108398 18.61816406 C4.95836402 20.96315658 4.95836402 20.96315658 5.52954102 23.0793457 C6.32057633 26.3087566 6.33707009 29.62760902 6.5 32.9375 C6.75605543 38.44575047 6.75605543 38.44575047 7.65625 43.87890625 C7.7696875 44.57886719 7.883125 45.27882812 8 46 C7.34 46.66 6.68 47.32 6 48 C5.13899251 42.29010061 4.28471319 36.57924917 3.43652344 30.86743164 C3.14733433 28.92640342 2.85634166 26.98564299 2.56347656 25.04516602 C2.14167984 22.248252 1.72648082 19.45042397 1.3125 16.65234375 C1.18125732 15.7916478 1.05001465 14.93095184 0.91479492 14.04417419 C0.2206219 9.30371387 -0.1356726 4.79093877 0 0 Z " fill="#C8ACAC" transform="translate(28,80)"/>
<path d="M0 0 C0.66 0 1.32 0 2 0 C1.98952637 0.77190674 1.97905273 1.54381348 1.96826172 2.33911133 C1.92673546 5.83020788 1.90068443 9.32125249 1.875 12.8125 C1.85824219 14.02744141 1.84148438 15.24238281 1.82421875 16.49414062 C1.81777344 17.65751953 1.81132812 18.82089844 1.8046875 20.01953125 C1.79421387 21.09307861 1.78374023 22.16662598 1.77294922 23.27270508 C1.79684457 26.21933741 1.79684457 26.21933741 4 29 C4.1953125 32.35546875 4.1953125 32.35546875 4.125 36.1875 C4.10695313 37.45980469 4.08890625 38.73210937 4.0703125 40.04296875 C4.03550781 41.50669922 4.03550781 41.50669922 4 43 C-0.93146059 33.99781932 -0.25921445 23.27018007 -0.125 13.3125 C-0.11597656 12.02666016 -0.10695313 10.74082031 -0.09765625 9.41601562 C-0.0743189 6.27714268 -0.04158033 3.13867524 0 0 Z " fill="#302729" transform="translate(24,56)"/>
<path d="M0 0 C0.33 0 0.66 0 1 0 C1.08636719 1.03640625 1.17273437 2.0728125 1.26171875 3.140625 C1.40246331 4.51053868 1.54445625 5.88032449 1.6875 7.25 C1.74099609 7.93191406 1.79449219 8.61382812 1.84960938 9.31640625 C2.25605311 12.95672839 2.78497117 14.7704422 5.3125 17.46875 C8.01825396 19.01040051 9.26401847 19.45667671 12.3125 19.25 C14.1378125 19.12625 14.1378125 19.12625 16 19 C15.67 19.66 15.34 20.32 15 21 C13.741875 21.020625 12.48375 21.04125 11.1875 21.0625 C10.47980469 21.07410156 9.77210937 21.08570313 9.04296875 21.09765625 C7 21 7 21 4 20 C4.66 21.32 5.32 22.64 6 24 C3.10371669 22.7016661 0.9320396 21.54677947 -1 19 C-2.59801559 14.54237757 -3.23045594 10.72434679 -3 6 C-2.67 7.32 -2.34 8.64 -2 10 C-1.34 10 -0.68 10 0 10 C0 6.7 0 3.4 0 0 Z " fill="#594947" transform="translate(37,157)"/>
<path d="M0 0 C0.33 0 0.66 0 1 0 C1.26754244 5.48462004 0.30930807 10.16657551 -2 15.1640625 C-3.35313421 19.00146656 -3.71259787 22.77974801 -4.125 26.8125 C-4.21136719 27.60076172 -4.29773438 28.38902344 -4.38671875 29.20117188 C-4.59751064 31.13343084 -4.79962896 33.06663263 -5 35 C-5.33 35 -5.66 35 -6 35 C-6.08834684 31.68767302 -6.14083584 28.37565565 -6.1875 25.0625 C-6.21263672 24.13630859 -6.23777344 23.21011719 -6.26367188 22.25585938 C-6.35013798 14.04157956 -4.83092544 6.80721311 0 0 Z " fill="#D0BAB8" transform="translate(33,43)"/>
<path d="M0 0 C0 3.29792126 -0.74861253 5.25354754 -1.9375 8.3125 C-6.8935281 21.72704956 -4.87302834 35.96918745 -4 50 C-4.99 50.495 -4.99 50.495 -6 51 C-7.23224279 40.04090454 -7.54680532 29.0121935 -8 18 C-7.34 18 -6.68 18 -6 18 C-6.33 16.02 -6.66 14.04 -7 12 C-6.34 12 -5.68 12 -5 12 C-4.87625 10.9275 -4.7525 9.855 -4.625 8.75 C-4.10280215 5.6168129 -3.70882871 3.61350274 -2 1 C-1.34 0.67 -0.68 0.34 0 0 Z " fill="#D4BBBC" transform="translate(28,41)"/>
<path d="M0 0 C2 2 2 2 2.1953125 4.3828125 C2.17210937 5.28773438 2.14890625 6.19265625 2.125 7.125 C2.10695312 8.03507813 2.08890625 8.94515625 2.0703125 9.8828125 C2.03550781 10.93082031 2.03550781 10.93082031 2 12 C2.66 12 3.32 12 4 12 C3.96519531 12.86238281 3.93039063 13.72476563 3.89453125 14.61328125 C3.65659716 25.34297547 5.09314594 35.45555107 7 46 C4 44 4 44 3.0859375 40.140625 C2.83363873 38.51271724 2.59761995 36.8822312 2.375 35.25 C2.25020264 34.39470703 2.12540527 33.53941406 1.99682617 32.65820312 C0.46543336 21.78907405 -0.20167502 10.98008468 0 0 Z " fill="#C1A2A3" transform="translate(35,128)"/>
<path d="M0 0 C0.99 0.33 1.98 0.66 3 1 C3.43274854 20.37751787 3.43274854 20.37751787 1 27 C0.34 27.33 -0.32 27.66 -1 28 C-1.1598655 18.62122392 -0.66433182 9.34809779 0 0 Z " fill="#2E2929" transform="translate(168,57)"/>
<path d="M0 0 C0.12375 0.639375 0.2475 1.27875 0.375 1.9375 C0.58125 2.618125 0.7875 3.29875 1 4 C1.66 4.33 2.32 4.66 3 5 C0.36 9.62 -2.28 14.24 -5 19 C-5.33 18.34 -5.66 17.68 -6 17 C-5.67 16.34 -5.34 15.68 -5 15 C-5.66 15 -6.32 15 -7 15 C-7 15.66 -7 16.32 -7 17 C-7.66 17 -8.32 17 -9 17 C-7.51481201 12.95698825 -5.57122002 9.38853744 -3.375 5.6875 C-2.74335937 4.61886719 -2.11171875 3.55023438 -1.4609375 2.44921875 C-0.97882813 1.64097656 -0.49671875 0.83273438 0 0 Z " fill="#372D2D" transform="translate(73,141)"/>
<path d="M0 0 C4.62 0.66 9.24 1.32 14 2 C12.02 2.99 12.02 2.99 10 4 C15.97127181 4.98554972 21.89491458 5.31055351 27.9375 5.5625 C28.90751953 5.60568359 29.87753906 5.64886719 30.87695312 5.69335938 C33.25118601 5.79862093 35.62550921 5.90075707 38 6 C38 6.33 38 6.66 38 7 C23.31911892 7.36754035 9.42218081 6.8572245 -5 4 C-5 3.67 -5 3.34 -5 3 C-3.02 2.67 -1.04 2.34 1 2 C0.67 1.34 0.34 0.68 0 0 Z " fill="#5B5350" transform="translate(70,25)"/>
<path d="M0 0 C0.66 0 1.32 0 2 0 C1.59622509 3.39170926 1.15807921 5.73856131 -0.625 8.6875 C-2.64329759 13.54976238 -1.75553728 17.88419334 -1 23 C-3.33524782 20.74259377 -5.18705073 18.7194239 -7 16 C-7 9.9897583 -3.50139716 4.69948797 0 0 Z " fill="#C7B7B5" transform="translate(107,91)"/>
<path d="M0 0 C7.38587922 8.08929629 6.33681297 18.83323823 6 29 C5.67 29 5.34 29 5 29 C4.95101562 27.92878906 4.90203125 26.85757813 4.8515625 25.75390625 C4.77654706 24.35674361 4.7009987 22.9596095 4.625 21.5625 C4.5940625 20.85544922 4.563125 20.14839844 4.53125 19.41992188 C4.42719371 17.60760812 4.22080108 15.80182012 4 14 C3.34 13.67 2.68 13.34 2 13 C2 15.31 2 17.62 2 20 C1.67 20 1.34 20 1 20 C0.66048381 18.43883181 0.32867456 16.87598662 0 15.3125 C-0.185625 14.44238281 -0.37125 13.57226562 -0.5625 12.67578125 C-1.29175268 8.21561978 -1.00375018 4.39140705 0 0 Z " fill="#605C5B" transform="translate(166,44)"/>
<path d="M0 0 C-1.98 0.99 -3.96 1.98 -6 3 C-5.67 3.66 -5.34 4.32 -5 5 C-6.93087573 9.18356407 -9.02777982 10.82473657 -13 13 C-14.68477344 14.31037934 -16.35648543 15.63823078 -18 17 C-16.44396229 13.18063472 -14.04395069 10.73955562 -11 8 C-10.34 8 -9.68 8 -9 8 C-9 7.34 -9 6.68 -9 6 C-10.1446875 6.495 -10.1446875 6.495 -11.3125 7 C-14 8 -14 8 -17 8 C-5.63938053 -2.38589176 -5.63938053 -2.38589176 0 0 Z " fill="#5E5352" transform="translate(52,26)"/>
<path d="M0 0 C0.66 0 1.32 0 2 0 C2.2475 0.94875 2.495 1.8975 2.75 2.875 C3.66779642 6.0044126 3.66779642 6.0044126 5.71875 7.1875 C8.5167286 8.18404032 10.78660501 8.19555702 13.75 8.125 C14.73484375 8.10695312 15.7196875 8.08890625 16.734375 8.0703125 C17.48203125 8.04710937 18.2296875 8.02390625 19 8 C18 11 18 11 16 12 C11.49271349 12.54016597 8.05005877 12.60322525 4.0625 10.3125 C1.09823172 6.98892647 0 4.44793499 0 0 Z " fill="#281E1C" transform="translate(135,169)"/>
<path d="M0 0 C0.33 0 0.66 0 1 0 C0.86186975 4.14612814 0.71321141 8.29181162 0.5625 12.4375 C0.52318359 13.62150391 0.48386719 14.80550781 0.44335938 16.02539062 C0.40146484 17.15009766 0.35957031 18.27480469 0.31640625 19.43359375 C0.27974854 20.47572021 0.24309082 21.51784668 0.20532227 22.59155273 C0 25 0 25 -1 26 C-1.397493 28.34723966 -1.74368723 30.70328548 -2.0625 33.0625 C-2.23910156 34.35285156 -2.41570312 35.64320313 -2.59765625 36.97265625 C-2.73042969 37.97167969 -2.86320313 38.97070312 -3 40 C-3.33 40 -3.66 40 -4 40 C-3.60872434 26.44027456 -2.42582002 13.34963846 0 0 Z " fill="#272120" transform="translate(164,108)"/>
<path d="M0 0 C0.33 1.32 0.66 2.64 1 4 C1.99 3.67 2.98 3.34 4 3 C4 3.66 4 4.32 4 5 C3.34 5 2.68 5 2 5 C1.855625 5.78375 1.71125 6.5675 1.5625 7.375 C1 10 1 10 0 12 C-0.66 12 -1.32 12 -2 12 C-2.33 12.66 -2.66 13.32 -3 14 C-3.33 13.34 -3.66 12.68 -4 12 C-4.66 13.32 -5.32 14.64 -6 16 C-6.66 16 -7.32 16 -8 16 C-6.42986223 10.03347646 -3.24970218 5.17090975 0 0 Z " fill="#4E4546" transform="translate(109,79)"/>
<path d="M0 0 C0.33 0 0.66 0 1 0 C3.29612756 14.59681093 3.29612756 14.59681093 3 22 C2.34 21.01 1.68 20.02 1 19 C0.67 21.31 0.34 23.62 0 26 C-2.37590142 22.29583874 -2.20500286 19.07015427 -2.125 14.75 C-2.10695313 13.48671875 -2.08890625 12.2234375 -2.0703125 10.921875 C-2.04710938 9.95765625 -2.02390625 8.9934375 -2 8 C-1.67 8 -1.34 8 -1 8 C-0.67 5.36 -0.34 2.72 0 0 Z " fill="#5B4A4C" transform="translate(28,87)"/>
<path d="M0 0 C11.03913945 -0.16207546 21.98440762 0.34235269 33 1 C33 1.33 33 1.66 33 2 C28.42390318 3.14174072 23.99810336 3.19138927 19.3125 3.1875 C18.11681396 3.1884668 18.11681396 3.1884668 16.89697266 3.18945312 C11.08732484 3.13746523 5.61437253 2.57992393 0 1 C0 0.67 0 0.34 0 0 Z " fill="#211A18" transform="translate(77,28)"/>
<path d="M0 0 C-0.99 0.33 -1.98 0.66 -3 1 C-0.03 1 2.94 1 6 1 C-0.49507295 4.24753648 -6.89067797 4.1450882 -14 4 C-14 3.67 -14 3.34 -14 3 C-20.93 2.505 -20.93 2.505 -28 2 C-28 1.67 -28 1.34 -28 1 C-26.85402344 0.93941406 -25.70804687 0.87882812 -24.52734375 0.81640625 C-22.99738703 0.73193011 -21.46743959 0.64728573 -19.9375 0.5625 C-18.80924805 0.50352539 -18.80924805 0.50352539 -17.65820312 0.44335938 C-14.09280708 0.24270938 -10.63372824 -0.05274313 -7.09375 -0.5625 C-4.26117598 -0.96306602 -2.6518449 -0.95466416 0 0 Z " fill="#413B3A" transform="translate(119,27)"/>
<path d="M0 0 C5.86258862 1.67502532 10.55475199 3.83212798 14 9 C9.90523432 9.32115809 7.7039201 9.47994552 4.25 7.125 C3.5075 6.42375 2.765 5.7225 2 5 C1.01 4.34 0.02 3.68 -1 3 C-0.67 2.01 -0.34 1.02 0 0 Z " fill="#322E2D" transform="translate(144,26)"/>
<path d="M0 0 C0.99 0 1.98 0 3 0 C2.69611836 2.93752254 2.19330344 3.84080893 -0.125 5.75 C-3.59278683 7.2577334 -6.25670998 7.22019353 -10 7 C-10.66 5.35 -11.32 3.7 -12 2 C-8.37 2 -4.74 2 -1 2 C-0.67 1.34 -0.34 0.68 0 0 Z " fill="#2A1D1B" transform="translate(53,175)"/>
<path d="M0 0 C0.33 0 0.66 0 1 0 C1.18215273 6.64461493 0.47531945 12.98595428 -0.4375 19.5625 C-0.57220703 20.56474609 -0.70691406 21.56699219 -0.84570312 22.59960938 C-1.53898188 27.73663585 -2.25887275 32.86967254 -3 38 C-3.33 38 -3.66 38 -4 38 C-4.3189892 29.22779709 -3.11636806 20.68175521 -2 12 C-2.66 12 -3.32 12 -4 12 C-4 9.36 -4 6.72 -4 4 C-3.67 4 -3.34 4 -3 4 C-2.67 5.98 -2.34 7.96 -2 10 C-1.34 6.7 -0.68 3.4 0 0 Z " fill="#5E5757" transform="translate(170,74)"/>
<path d="M0 0 C0 0.66 0 1.32 0 2 C-1.609375 3.55078125 -1.609375 3.55078125 -3.75 5.3125 C-6.90170177 7.98362313 -9.55769329 10.64182828 -12 14 C-12.84819206 11.63234732 -13.23923525 10.50796525 -12.14453125 8.18359375 C-5.901566 0 -5.901566 0 0 0 Z " fill="#362B2B" transform="translate(43,32)"/>
<path d="M0 0 C0.33 0 0.66 0 1 0 C1.27679283 2.72881626 1.52206665 5.45453444 1.75 8.1875 C1.87181641 9.34088867 1.87181641 9.34088867 1.99609375 10.51757812 C2.31845594 14.69037763 2.37302662 16.42650829 0.015625 20.05078125 C-0.64953125 20.69402344 -1.3146875 21.33726562 -2 22 C-1.85895309 19.08302989 -1.71235186 16.1665198 -1.5625 13.25 C-1.50352539 12.0125 -1.50352539 12.0125 -1.44335938 10.75 C-1.40146484 9.95078125 -1.35957031 9.1515625 -1.31640625 8.328125 C-1.27974854 7.5949707 -1.24309082 6.86181641 -1.20532227 6.10644531 C-0.99885215 3.98822395 -0.56867914 2.0480544 0 0 Z " fill="#D0C1BF" transform="translate(165,123)"/>
<path d="M0 0 C0.79596365 2.69138789 1.04361747 3.83346058 0.3125 6.625 C-1 9 -1 9 -3.0625 10 C-4.0215625 10.495 -4.0215625 10.495 -5 11 C-5.67958603 13.39719432 -5.67958603 13.39719432 -6 16 C-7.0625 18.3125 -7.0625 18.3125 -8 20 C-8.66 20 -9.32 20 -10 20 C-8.56347895 15.08558588 -6.45840385 10.99761642 -3.875 6.625 C-3.50246094 5.98433594 -3.12992187 5.34367188 -2.74609375 4.68359375 C-1.83565998 3.11951523 -0.91851809 1.55934466 0 0 Z " fill="#BDA4A3" transform="translate(79,139)"/>
<path d="M0 0 C3.99824088 3.66505414 6.60168569 7.11112852 9 12 C8 14 8 14 5 16 C2.53389456 11.68431547 1.89311308 8.91679837 2 4 C1.10168984 1.69769234 1.10168984 1.69769234 0 0 Z " fill="#4C4140" transform="translate(110,125)"/>
<path d="M0 0 C1.28284601 3.84853802 0.47918865 5.53095203 -0.96484375 9.19140625 C-2 11 -2 11 -4.6875 12.5 C-5.450625 12.665 -6.21375 12.83 -7 13 C-7 11.68 -7 10.36 -7 9 C-6.34 9 -5.68 9 -5 9 C-5 8.01 -5 7.02 -5 6 C-4.34 6 -3.68 6 -3 6 C-2.814375 5.071875 -2.814375 5.071875 -2.625 4.125 C-2 2 -2 2 0 0 Z " fill="#3E3838" transform="translate(117,70)"/>
<path d="M0 0 C4.16435422 6.24653133 3.13682843 14.71768709 3 22 C2.67 20.68 2.34 19.36 2 18 C1.34 18 0.68 18 0 18 C0 12.06 0 6.12 0 0 Z " fill="#2B2123" transform="translate(32,131)"/>
<path d="M0 0 C1.84658203 0.00773437 1.84658203 0.00773437 3.73046875 0.015625 C4.95378906 0.01046875 6.17710938 0.0053125 7.4375 0 C10.72563148 0.25094606 12.96872244 0.84998677 15.91796875 2.265625 C15.91796875 2.595625 15.91796875 2.925625 15.91796875 3.265625 C8.82069447 3.37370532 1.95701919 3.20416506 -5.08203125 2.265625 C-3.08203125 0.265625 -3.08203125 0.265625 0 0 Z " fill="#251F1C" transform="translate(59.08203125,24.734375)"/>
<path d="M0 0 C0.33 0.66 0.66 1.32 1 2 C0.67 2.99 0.34 3.98 0 5 C0.66 5 1.32 5 2 5 C1.625 7.4375 1.625 7.4375 1 10 C0.01 10.495 0.01 10.495 -1 11 C-1 9.68 -1 8.36 -1 7 C-1.45375 7.825 -1.9075 8.65 -2.375 9.5 C-2.91125 10.325 -3.4475 11.15 -4 12 C-4.66 12 -5.32 12 -6 12 C-6 12.99 -6 13.98 -6 15 C-6.66 15 -7.32 15 -8 15 C-6.51194289 9.19657726 -3.40902445 4.82409121 0 0 Z " fill="#6E6565" transform="translate(118,64)"/>
<path d="M0 0 C0 0.33 0 0.66 0 1 C-2.49927769 1.33970765 -4.99919595 1.67188032 -7.5 2 C-8.19609375 2.09539063 -8.8921875 2.19078125 -9.609375 2.2890625 C-14.44700129 2.9161622 -19.12181196 3.08789528 -24 3 C-17.05669881 -1.00380142 -7.72861468 -1.79735225 0 0 Z " fill="#211C1C" transform="translate(136,26)"/>
<path d="M0 0 C1 3 1 3 0.29296875 4.7890625 C-0.07183594 5.39492187 -0.43664063 6.00078125 -0.8125 6.625 C-1.16957031 7.23601562 -1.52664062 7.84703125 -1.89453125 8.4765625 C-3 10 -3 10 -5 11 C-10.42307692 11.46153846 -10.42307692 11.46153846 -12.875 9.5 C-13.24625 9.005 -13.6175 8.51 -14 8 C-12.741875 8.061875 -11.48375 8.12375 -10.1875 8.1875 C-6.90700824 8.21502699 -6.90700824 8.21502699 -4.0625 6.6875 C-2.82428274 4.86929609 -2.82428274 4.86929609 -2 2 C-1.34 2 -0.68 2 0 2 C0 1.34 0 0.68 0 0 Z " fill="#D9B6B8" transform="translate(56,166)"/>
<path d="M0 0 C0.66 0.33 1.32 0.66 2 1 C0.40690569 6.53962341 -1.18030033 10.58347226 -5 15 C-6.04451438 16.97711651 -7.05698138 18.97250996 -8 21 C-9 18 -9 18 -7.75 14.4375 C-6 11 -6 11 -3 9 C-2.26656572 5.93443402 -2.26656572 5.93443402 -2 3 C-1.34 3 -0.68 3 0 3 C0 2.01 0 1.02 0 0 Z " fill="#CFBBBA" transform="translate(94,100)"/>
<path d="M0 0 C0.33 0 0.66 0 1 0 C1.33 2.97 1.66 5.94 2 9 C1.01 9.33 0.02 9.66 -1 10 C-1 9.34 -1 8.68 -1 8 C-1.99 8.33 -2.98 8.66 -4 9 C-6.7635072 9.28455916 -9.19366639 9.17817991 -12 9 C-12.66 8.01 -13.32 7.02 -14 6 C-13.38511719 6.09539062 -12.77023438 6.19078125 -12.13671875 6.2890625 C-11.32847656 6.39992187 -10.52023438 6.51078125 -9.6875 6.625 C-8.88699219 6.74101562 -8.08648437 6.85703125 -7.26171875 6.9765625 C-4.71276785 7.21533407 -4.71276785 7.21533407 -2 5 C-0.79549696 2.44816596 -0.79549696 2.44816596 0 0 Z " fill="#635755" transform="translate(155,169)"/>
<path d="M0 0 C0.928125 0.2784375 0.928125 0.2784375 1.875 0.5625 C4.04160178 1.23686176 4.04160178 1.23686176 6 0 C5.34 2.31 4.68 4.62 4 7 C3.34 7 2.68 7 2 7 C1.71125 7.969375 1.4225 8.93875 1.125 9.9375 C0 13 0 13 -2 14 C-1.67 13.0925 -1.34 12.185 -1 11.25 C0.19605723 7.92954193 0.19605723 7.92954193 0 4 C-0.99 4.495 -0.99 4.495 -2 5 C-1.34 3.35 -0.68 1.7 0 0 Z " fill="#827A7C" transform="translate(125,52)"/>
<path d="M0 0 C0.33 0 0.66 0 1 0 C1.0814222 2.22855574 1.13938079 4.45797655 1.1875 6.6875 C1.22230469 7.92886719 1.25710937 9.17023438 1.29296875 10.44921875 C0.98168974 14.22192032 0.33086182 16.05343883 -2 19 C-4.6875 19.8125 -4.6875 19.8125 -7 20 C-7 19.01 -7 18.02 -7 17 C-5.35 16.67 -3.7 16.34 -2 16 C-0.89485234 12.68455701 -0.67892369 9.79589889 -0.4375 6.3125 C-0.35371094 5.13300781 -0.26992187 3.95351562 -0.18359375 2.73828125 C-0.12300781 1.83464844 -0.06242188 0.93101562 0 0 Z " fill="#DCC9C7" transform="translate(154,157)"/>
<path d="M0 0 C1 2 1 2 0.58203125 3.91015625 C0.32808594 4.62042969 0.07414062 5.33070313 -0.1875 6.0625 C-0.54908203 7.13177734 -0.54908203 7.13177734 -0.91796875 8.22265625 C-2 10 -2 10 -4.11328125 10.74609375 C-4.73589844 10.82988281 -5.35851563 10.91367188 -6 11 C-6.33 12.32 -6.66 13.64 -7 15 C-7.33 14.34 -7.66 13.68 -8 13 C-6.85546875 10.46875 -6.85546875 10.46875 -5.1875 7.5 C-4.64480469 6.5203125 -4.10210937 5.540625 -3.54296875 4.53125 C-2 2 -2 2 0 0 Z " fill="#BA9C9C" transform="translate(68,159)"/>
<path d="M0 0 C0.33 0 0.66 0 1 0 C1 3.63 1 7.26 1 11 C-2.96 11 -6.92 11 -11 11 C-10.67 10.34 -10.34 9.68 -10 9 C-7.03 9 -4.06 9 -1 9 C-0.67 6.03 -0.34 3.06 0 0 Z " fill="#F0EFEF" transform="translate(173,5)"/>
<path d="M0 0 C3.82868919 1.45226142 5.2538953 3.33318013 7 7 C7 8.32 7 9.64 7 11 C5.68 10.67 4.36 10.34 3 10 C2.67 7.36 2.34 4.72 2 2 C1.34 2 0.68 2 0 2 C0 1.34 0 0.68 0 0 Z " fill="#382F2D" transform="translate(123,150)"/>
<path d="M0 0 C3.96 0 7.92 0 12 0 C11.67 0.99 11.34 1.98 11 3 C7.37 3 3.74 3 0 3 C0 2.01 0 1.02 0 0 Z " fill="#302C2B" transform="translate(163,17)"/>
<path d="M0 0 C2 2 2 2 2.1953125 4.3828125 C2.17210937 5.28773438 2.14890625 6.19265625 2.125 7.125 C2.10695312 8.03507813 2.08890625 8.94515625 2.0703125 9.8828125 C2.03550781 10.93082031 2.03550781 10.93082031 2 12 C2.66 12 3.32 12 4 12 C3.67 14.97 3.34 17.94 3 21 C2.67 21 2.34 21 2 21 C0.27669093 13.90673679 -0.2494783 7.29031024 0 0 Z " fill="#DEBABA" transform="translate(35,128)"/>
<path d="M0 0 C0.33 0 0.66 0 1 0 C1.25 2.3125 1.25 2.3125 1 5 C-1.45579457 7.98966296 -4.08004819 8.26560003 -7.75 8.6875 C-9.16570961 8.80395353 -10.58222818 8.91214662 -12 9 C-10.2250237 7.81668247 -8.42052006 6.67311388 -6.5625 5.625 C-3.98950377 3.99334386 -2.10730196 2.18256274 0 0 Z " fill="#BC9C9C" transform="translate(59,174)"/>
<path d="M0 0 C0.61328125 1.80859375 0.61328125 1.80859375 1 4 C-0.8125 7.0625 -0.8125 7.0625 -3 10 C-3.99 11.485 -3.99 11.485 -5 13 C-5.66 13 -6.32 13 -7 13 C-5.58832253 7.73829306 -3.25149768 4.27828642 0 0 Z " fill="#B9A9A7" transform="translate(94,114)"/>
<path d="M0 0 C0.33 0.66 0.66 1.32 1 2 C1.639375 2.2475 2.27875 2.495 2.9375 2.75 C5.89992379 4.54540836 6.0392786 6.77472103 7 10 C7.66 10.33 8.32 10.66 9 11 C8.67 11.99 8.34 12.98 8 14 C3.14894671 11.1562791 1.78603904 6.78686569 0.3125 1.5625 C0.209375 1.046875 0.10625 0.53125 0 0 Z " fill="#D4C2C0" transform="translate(106,114)"/>
<path d="M0 0 C0 0.33 0 0.66 0 1 C-2.41474617 1.53160457 -4.83108107 2.05054766 -7.25 2.5625 C-8.27287109 2.78969727 -8.27287109 2.78969727 -9.31640625 3.02148438 C-12.81769038 3.75233495 -15.60298173 4.32203546 -19 3 C-12.68284595 -0.44572039 -7.09629025 -0.31461385 0 0 Z " fill="#B9ABAA" transform="translate(65,28)"/>
<path d="M0 0 C0.33 0 0.66 0 1 0 C1 4.95 1 9.9 1 15 C0.01 15 -0.98 15 -2 15 C-2.33 12.03 -2.66 9.06 -3 6 C-2.67 7.32 -2.34 8.64 -2 10 C-1.34 10 -0.68 10 0 10 C0 6.7 0 3.4 0 0 Z " fill="#503D3E" transform="translate(37,157)"/>
<path d="M0 0 C0.99 0.33 1.98 0.66 3 1 C3 2.32 3 3.64 3 5 C3.99 5.33 4.98 5.66 6 6 C8.56111503 9.41482003 9.36444983 11.74808535 9 16 C6.82266364 13.82266364 5.50857437 11.48943145 4.01953125 8.8125 C3.1385614 7.24633138 2.1993266 5.71320346 1.25 4.1875 C0 2 0 2 0 0 Z " fill="#C6B3B2" transform="translate(128,153)"/>
<path d="M0 0 C3.875 1.75 3.875 1.75 5 4 C4.34 4 3.68 4 3 4 C3 4.66 3 5.32 3 6 C3.66 6 4.32 6 5 6 C5.33 8.31 5.66 10.62 6 13 C5.34 12.67 4.68 12.34 4 12 C3.26924352 9.6859378 2.59861742 7.35171131 2 5 C1.34 5 0.68 5 0 5 C0 3.35 0 1.7 0 0 Z " fill="#514444" transform="translate(120,146)"/>
<path d="M0 0 C0.33 0 0.66 0 1 0 C1.33 3.63 1.66 7.26 2 11 C1.67 11 1.34 11 1 11 C0.67 13.64 0.34 16.28 0 19 C-0.33 19 -0.66 19 -1 19 C-1.33 14.38 -1.66 9.76 -2 5 C-1.34 5 -0.68 5 0 5 C0 3.35 0 1.7 0 0 Z " fill="#403333" transform="translate(32,123)"/>
<path d="M0 0 C1.65 0 3.3 0 5 0 C4.29875 0.680625 3.5975 1.36125 2.875 2.0625 C-0.27934337 5.20780513 -3.13934304 8.5888386 -6 12 C-6.33 10.68 -6.66 9.36 -7 8 C-6.34 8 -5.68 8 -5 8 C-4.67 7.01 -4.34 6.02 -4 5 C-3.34 5 -2.68 5 -2 5 C-2 4.34 -2 3.68 -2 3 C-1.34 3 -0.68 3 0 3 C0 2.01 0 1.02 0 0 Z " fill="#DDCBC9" transform="translate(36,29)"/>
<path d="M0 0 C0.33 0 0.66 0 1 0 C1.31985731 6.71700347 0.4793824 11.75726932 -2 18 C-2.33 18 -2.66 18 -3 18 C-3.16922842 13.60006116 -3.04657256 10.85237188 -1 7 C-0.61250787 4.67504723 -0.27017161 2.34148732 0 0 Z " fill="#332E2E" transform="translate(159,158)"/>
<path d="M0 0 C0.66 0 1.32 0 2 0 C0.14285714 7.57142857 0.14285714 7.57142857 -3 10 C-3.98120464 6.94736336 -3.98120464 5.05263664 -3 2 C-2.01 2 -1.02 2 0 2 C0 1.34 0 0.68 0 0 Z " fill="#352C2D" transform="translate(66,156)"/>
<path d="M0 0 C0.66 0.33 1.32 0.66 2 1 C-0.64 5.62 -3.28 10.24 -6 15 C-7 12 -7 12 -5.6875 8.375 C-4 5 -4 5 -2 4 C-0.86649466 1.98330173 -0.86649466 1.98330173 0 0 Z " fill="#D3B0B1" transform="translate(64,153)"/>
<path d="M0 0 C1 2 1 2 0.25 5.4375 C-1.40856031 10.16439689 -1.40856031 10.16439689 -4 12 C-4.66 12 -5.32 12 -6 12 C-4.43358249 7.69235185 -2.31663844 3.93828536 0 0 Z " fill="#BBA4A4" transform="translate(86,127)"/>
<path d="M0 0 C0.33 0 0.66 0 1 0 C1 1.98 1 3.96 1 6 C0.01 6.33 -0.98 6.66 -2 7 C-3.22520264 10.00847418 -3.22520264 10.00847418 -4 13 C-5.0169313 10.34501768 -5.13022151 9.30844625 -4.00390625 6.640625 C-3.52824219 5.85171875 -3.05257813 5.0628125 -2.5625 4.25 C-2.08941406 3.45078125 -1.61632812 2.6515625 -1.12890625 1.828125 C-0.75636719 1.22484375 -0.38382813 0.6215625 0 0 Z " fill="#AD9D9C" transform="translate(33,43)"/>
<path d="M0 0 C2.78388975 1.70625501 3.85384206 2.47626739 4.75 5.6875 C4.8325 6.450625 4.915 7.21375 5 8 C4.01 8.33 3.02 8.66 2 9 C2 8.34 2 7.68 2 7 C1.34 7 0.68 7 0 7 C-0.38133299 5.0085944 -0.71325582 3.00720923 -1 1 C-0.67 0.67 -0.34 0.34 0 0 Z " fill="#393534" transform="translate(162,41)"/>
<path d="M0 0 C0 3 0 3 -1.5 4.8125 C-3.45108103 7.6578265 -3.23018911 9.623893 -3 13 C-3.99 13 -4.98 13 -6 13 C-6.6796875 11.26171875 -6.6796875 11.26171875 -7 9 C-5.8203125 6.89453125 -5.8203125 6.89453125 -4.125 4.8125 C-3.57070313 4.11769531 -3.01640625 3.42289063 -2.4453125 2.70703125 C-1.659571 1.77900682 -0.8598311 0.8598311 0 0 Z " fill="#655959" transform="translate(34,35)"/>
<path d="M0 0 C3.96 0 7.92 0 12 0 C11.67 1.32 11.34 2.64 11 4 C7.37 4 3.74 4 0 4 C0 3.67 0 3.34 0 3 C4.455 2.505 4.455 2.505 9 2 C6.03 1.67 3.06 1.34 0 1 C0 0.67 0 0.34 0 0 Z " fill="#524F50" transform="translate(179,17)"/>
<path d="M0 0 C1.010625 0.804375 2.02125 1.60875 3.0625 2.4375 C6.75545309 5.10547019 9.49377556 5.72410871 14 6 C14 6.33 14 6.66 14 7 C8.32723489 7.29341888 5.00932754 7.00559652 0 4 C0 2.68 0 1.36 0 0 Z " fill="#9F8D8D" transform="translate(135,175)"/>
<path d="M0 0 C0.66 0 1.32 0 2 0 C2.268125 0.969375 2.53625 1.93875 2.8125 2.9375 C3.204375 3.948125 3.59625 4.95875 4 6 C4.99 6.33 5.98 6.66 7 7 C6.01 7.495 6.01 7.495 5 8 C4.67 8.66 4.34 9.32 4 10 C1.80902348 6.6659053 0.56545837 3.95820859 0 0 Z " fill="#312826" transform="translate(135,169)"/>
<path d="M0 0 C0.12375 0.639375 0.2475 1.27875 0.375 1.9375 C0.684375 2.9584375 0.684375 2.9584375 1 4 C1.66 4.33 2.32 4.66 3 5 C2.34 5.66 1.68 6.32 1 7 C-0.32 7 -1.64 7 -3 7 C-3 7.99 -3 8.98 -3 10 C-3.66 10 -4.32 10 -5 10 C-3.66511872 6.40608886 -2.03977277 3.24509304 0 0 Z " fill="#594A4B" transform="translate(73,141)"/>
<path d="M0 0 C0.66 0 1.32 0 2 0 C2 2.64 2 5.28 2 8 C0.68 8 -0.64 8 -2 8 C-1.125 1.125 -1.125 1.125 0 0 Z " fill="#261E20" transform="translate(97,102)"/>
<path d="M0 0 C0.33 1.32 0.66 2.64 1 4 C1.99 3.67 2.98 3.34 4 3 C4 3.66 4 4.32 4 5 C3.34 5 2.68 5 2 5 C1.67 6.65 1.34 8.3 1 10 C0.67 9.34 0.34 8.68 0 8 C0.33 7.01 0.66 6.02 1 5 C0.34 5 -0.32 5 -1 5 C-1 5.66 -1 6.32 -1 7 C-1.66 7 -2.32 7 -3 7 C-1.125 1.125 -1.125 1.125 0 0 Z " fill="#6A6061" transform="translate(109,79)"/>
<path d="M0 0 C0.66 0.33 1.32 0.66 2 1 C-0.17024784 4.25537177 -1.68059295 5.07011218 -5 7 C-6.68477344 8.31037934 -8.35648543 9.63823078 -10 11 C-8.55218207 7.55571735 -6.72305391 5.63869038 -3.875 3.25 C-3.15054688 2.63640625 -2.42609375 2.0228125 -1.6796875 1.390625 C-0.84824219 0.70226563 -0.84824219 0.70226563 0 0 Z " fill="#A39491" transform="translate(44,32)"/>
<path d="M0 0 C4.29 0.33 8.58 0.66 13 1 C12.67 1.66 12.34 2.32 12 3 C7.71 3 3.42 3 -1 3 C-0.67 2.01 -0.34 1.02 0 0 Z " fill="#E4CBCB" transform="translate(139,181)"/>
<path d="M0 0 C1.485 0.99 1.485 0.99 3 2 C3 2.66 3 3.32 3 4 C3.99 4 4.98 4 6 4 C6.33 6.31 6.66 8.62 7 11 C3.17330957 7.57611908 1.27721526 4.99275057 0 0 Z " fill="#A79696" transform="translate(121,142)"/>
<path d="M0 0 C2.64 0.33 5.28 0.66 8 1 C6.68 1.33 5.36 1.66 4 2 C4 2.66 4 3.32 4 4 C5.65 4 7.3 4 9 4 C9 4.33 9 4.66 9 5 C6.69 5 4.38 5 2 5 C1.34 3.35 0.68 1.7 0 0 Z " fill="#3D2E2C" transform="translate(41,177)"/>
<path d="M0 0 C3.63 0 7.26 0 11 0 C9 2 9 2 6 4 C5.01 4 4.02 4 3 4 C2.67 3.01 2.34 2.02 2 1 C1.34 0.67 0.68 0.34 0 0 Z " fill="#E2BEBD" transform="translate(43,182)"/>
<path d="M0 0 C0.33 1.32 0.66 2.64 1 4 C1.66 4 2.32 4 3 4 C2.34 5.65 1.68 7.3 1 9 C0.67 8.34 0.34 7.68 0 7 C0.33 6.34 0.66 5.68 1 5 C0.34 5 -0.32 5 -1 5 C-1 5.66 -1 6.32 -1 7 C-1.66 7 -2.32 7 -3 7 C-1.125 2.25 -1.125 2.25 0 0 Z " fill="#5E4E50" transform="translate(67,151)"/>
<path d="M0 0 C0.6875 1.6875 0.6875 1.6875 1 4 C-0.3125 6.75 -0.3125 6.75 -2 9 C-2.66 9 -3.32 9 -4 9 C-4 7.68 -4 6.36 -4 5 C-3.34 5 -2.68 5 -2 5 C-2 4.01 -2 3.02 -2 2 C-1.34 2 -0.68 2 0 2 C0 1.34 0 0.68 0 0 Z " fill="#302628" transform="translate(78,136)"/>
<path d="M0 0 C0.66 0 1.32 0 2 0 C2.33 3.63 2.66 7.26 3 11 C1 10 1 10 0 7 C-0.03954234 4.66700175 -0.04401732 2.33291811 0 0 Z " fill="#F3EDED" transform="translate(171,50)"/>
<path d="M0 0 C1.10844919 3.32534757 0.84454356 5.62182575 0 9 C-0.33 8.34 -0.66 7.68 -1 7 C-1.99 6.67 -2.98 6.34 -4 6 C-2.68 4.02 -1.36 2.04 0 0 Z " fill="#554545" transform="translate(57,168)"/>
<path d="M0 0 C1.0625 1.8125 1.0625 1.8125 2 4 C1.67 4.99 1.34 5.98 1 7 C-0.65 5.35 -2.3 3.7 -4 2 C-2.68 1.34 -1.36 0.68 0 0 Z " fill="#392E30" transform="translate(102,110)"/>
<path d="M0 0 C0.93423645 3.01031744 1.04449911 3.86650268 0 7 C0.99 7.33 1.98 7.66 3 8 C1.68 8.99 0.36 9.98 -1 11 C-2.25 3.375 -2.25 3.375 0 0 Z " fill="#4E4443" transform="translate(95,103)"/>
<path d="M0 0 C1.65 0 3.3 0 5 0 C5 3 5 3 3.5 4.6875 C3.005 5.120625 2.51 5.55375 2 6 C1.34 4.02 0.68 2.04 0 0 Z " fill="#1C1717" transform="translate(139,26)"/>
<path d="M0 0 C0.33 0 0.66 0 1 0 C1.26218749 3.14624993 1.24754367 4.61837017 -0.5 7.3125 C-1.2425 8.1478125 -1.2425 8.1478125 -2 9 C-2.66 8.34 -3.32 7.68 -4 7 C-1.125 1.125 -1.125 1.125 0 0 Z " fill="#312A2B" transform="translate(125,55)"/>
<path d="M0 0 C0.66 0 1.32 0 2 0 C1.67 1.65 1.34 3.3 1 5 C0.34 5 -0.32 5 -1 5 C-1.33 6.32 -1.66 7.64 -2 9 C-2.66 9 -3.32 9 -4 9 C-2.94124926 5.59687262 -1.99097846 2.98646769 0 0 Z " fill="#B7AFB0" transform="translate(135,43)"/>
<path d="M0 0 C2.97 0 5.94 0 9 0 C9 0.99 9 1.98 9 3 C6.1875 3.1875 6.1875 3.1875 3 3 C2.01 2.01 1.02 1.02 0 0 Z " fill="#DFBEBF" transform="translate(42,174)"/>
<path d="M0 0 C0.66 0 1.32 0 2 0 C1.50351065 4.46840411 1.31012244 5.68987756 -2 9 C-1.34 6.03 -0.68 3.06 0 0 Z " fill="#D5C5C5" transform="translate(107,91)"/>
<path d="M0 0 C0.8125 1.6875 0.8125 1.6875 1 4 C-1.4375 6.75 -1.4375 6.75 -4 9 C-4 7.68 -4 6.36 -4 5 C-3.34 5 -2.68 5 -2 5 C-1.34 3.35 -0.68 1.7 0 0 Z " fill="#D7C9C9" transform="translate(115,79)"/>
<path d="M0 0 C0.33 0.99 0.66 1.98 1 3 C-1.97 5.475 -1.97 5.475 -5 8 C-4.42415568 5.61435923 -3.77772405 3.33317216 -3 1 C-2.01 0.67 -1.02 0.34 0 0 Z " fill="#E8BFBF" transform="translate(65,169)"/>
<path d="M0 0 C2 1.25 2 1.25 4 3 C4 4.32 4 5.64 4 7 C3.01 6.67 2.02 6.34 1 6 C0.67 4.02 0.34 2.04 0 0 Z " fill="#312526" transform="translate(104,117)"/>
<path d="M0 0 C2.76223278 2.76223278 2.57856291 5.20706617 3 9 C0.9375 7.3125 0.9375 7.3125 -1 5 C-0.75 2.25 -0.75 2.25 0 0 Z " fill="#DFCBC9" transform="translate(103,105)"/>
<path d="M0 0 C0.33 0 0.66 0 1 0 C1 2.97 1 5.94 1 9 C1.66 9 2.32 9 3 9 C2.34 10.32 1.68 11.64 1 13 C0.67 13 0.34 13 0 13 C0 8.71 0 4.42 0 0 Z " fill="#433B3B" transform="translate(165,87)"/>
<path d="M0 0 C1 3 1 3 1 6 C-0.98 6.99 -0.98 6.99 -3 8 C-2.45276317 4.62537285 -1.9451 2.91765 0 0 Z " fill="#BEB9B9" transform="translate(140,35)"/>
<path d="M0 0 C0.33 0 0.66 0 1 0 C1.66 3.63 2.32 7.26 3 11 C2.01 11.33 1.02 11.66 0 12 C0 8.04 0 4.08 0 0 Z " fill="#DFBEBF" transform="translate(31,93)"/>
<path d="M0 0 C0.93065133 2.60582371 1.14917407 3.64198224 0.0625 6.25 C-0.4634375 7.11625 -0.4634375 7.11625 -1 8 C-1.66 8 -2.32 8 -3 8 C-1.125 1.125 -1.125 1.125 0 0 Z " fill="#302828" transform="translate(29,46)"/>
<path d="M0 0 C1.875 0.3125 1.875 0.3125 4 1 C4.66 1.99 5.32 2.98 6 4 C4.35 4 2.7 4 1 4 C0.67 2.68 0.34 1.36 0 0 Z " fill="#322F2C" transform="translate(152,31)"/>
<path d="M0 0 C1.32 0.66 2.64 1.32 4 2 C3.34 2 2.68 2 2 2 C2.33 3.32 2.66 4.64 3 6 C-0.875 4.25 -0.875 4.25 -2 2 C-1.34 2 -0.68 2 0 2 C0 1.34 0 0.68 0 0 Z " fill="#534E4C" transform="translate(150,29)"/>
</svg>
