<?xml version="1.0" standalone="no"?>
<!DOCTYPE svg PUBLIC "-//W3C//DTD SVG 20010904//EN"
 "http://www.w3.org/TR/2001/REC-SVG-20010904/DTD/svg10.dtd">
<svg version="1.0" xmlns="http://www.w3.org/2000/svg"
 width="196.000000pt" height="187.000000pt" viewBox="0 0 196.000000 187.000000"
 preserveAspectRatio="xMidYMid meet">
<g transform="translate(0.000000,187.000000) scale(0.100000,-0.100000)"
fill="#000000" stroke="none">
<path d="M1757 1824 c-4 -4 -7 -34 -7 -66 l0 -58 -66 0 c-57 0 -65 -2 -62 -17
3 -15 16 -19 66 -21 l62 -3 0 -59 c0 -53 2 -60 20 -60 18 0 20 7 20 60 l0 59
57 3 c45 2 59 7 61 20 3 14 -7 17 -59 20 l-62 3 -1 59 c-1 54 -12 77 -29 60z"/>
<path d="M511 1614 c-69 -18 -107 -42 -162 -101 -87 -94 -119 -176 -119 -306
0 -72 24 -296 65 -607 8 -63 24 -189 35 -279 12 -90 27 -176 35 -191 24 -46
62 -70 111 -70 65 0 96 35 226 260 212 364 263 450 269 450 4 0 44 -64 89
-142 199 -345 312 -528 336 -547 33 -26 95 -28 134 -5 54 33 63 63 95 334 8
74 31 263 50 419 41 330 44 431 15 523 -43 141 -151 241 -291 269 -44 9 -79 7
-195 -10 -177 -26 -282 -26 -454 -1 -157 23 -168 23 -239 4z m235 -39 c125
-19 300 -19 429 0 55 8 129 15 163 15 l64 0 -23 -37 c-64 -106 -325 -551 -469
-798 -207 -357 -340 -583 -364 -617 -29 -42 -59 -54 -98 -39 -44 16 -60 53
-74 169 -7 59 -34 276 -60 482 -55 449 -57 538 -10 635 37 74 126 164 186 187
57 21 130 22 256 3z m755 -34 c90 -58 149 -152 169 -269 12 -75 13 -67 -39
-487 -17 -132 -39 -319 -51 -415 -24 -201 -32 -232 -67 -260 -54 -42 -95 -21
-154 83 -23 40 -113 194 -200 343 -87 149 -159 276 -159 282 0 21 433 752 445
752 6 0 31 -13 56 -29z"/>
<path d="M1131 1264 c0 -11 3 -14 6 -6 3 7 2 16 -1 19 -3 4 -6 -2 -5 -13z"/>
<path d="M1246 1162 c-3 -5 1 -9 9 -9 8 0 12 4 9 9 -3 4 -7 8 -9 8 -2 0 -6 -4
-9 -8z"/>
</g>
</svg>
