<svg xmlns="http://www.w3.org/2000/svg" viewBox="0 0 100 100">
  <rect width="100" height="100" rx="20" fill="#FAF5EE"/>
  <!-- Tooth outline -->
  <path d="M50 18 C40 18 27 23 23 36 C19 46 21 56 20 65 C19 74 21 86 27 92 C31 96 38 93 41 85 C44 77 47 72 50 72 C53 72 56 77 59 85 C62 93 69 96 73 92 C79 86 81 74 80 65 C79 56 81 46 77 36 C73 23 60 18 50 18Z"
        fill="none" stroke="#1C1210" stroke-width="4.5" stroke-linejoin="round"/>
  <!-- Inner W lines (tooth anatomy) -->
  <path d="M34 32 Q38 52 50 62 Q62 52 66 32"
        fill="none" stroke="#1C1210" stroke-width="4" stroke-linecap="round" stroke-linejoin="round"/>
  <!-- Plus sign top-right -->
  <line x1="73" y1="7"  x2="73" y2="19" stroke="#1C1210" stroke-width="3.5" stroke-linecap="round"/>
  <line x1="67" y1="13" x2="79" y2="13" stroke="#1C1210" stroke-width="3.5" stroke-linecap="round"/>
</svg>
